<svg xmlns="http://www.w3.org/2000/svg" viewBox="0 0 199.05 111.34"><g id="Layer_2" data-name="Layer 2"><g id="Layer_1-2" data-name="Layer 1"><path d="M117.83,77.31a76.51,76.51,0,0,0-2.34-18.5c-1.1-4.17-2.33-8.31-2.61-12.67a29.05,29.05,0,0,1,1.42-11.82,19.43,19.43,0,0,1,6.85-9.62c3.83-2.77,8-3.86,12.69-2.44a14,14,0,0,1,8.32,6.82,30.54,30.54,0,0,1,2.05,4.85,74.7,74.7,0,0,0,4.62,10.53,47.54,47.54,0,0,0,2.45,4.12,16.07,16.07,0,0,0,2.46,2.93c4.35,4,8.44,4.11,12.87.5a15.19,15.19,0,0,0,5.32-8.34,37.13,37.13,0,0,0,.93-7.12c.16-3.35.43-6.7.64-10,.29-4.43,1.55-8.46,4.65-11.8a1.71,1.71,0,0,0,0-2.58c-.93-1.1-1.94-2.13-2.87-3.23-.72-.85-1.39-1.75-2-2.66a1.6,1.6,0,0,1,.56-2.08,11.2,11.2,0,0,1,2.25-.8c6.14-1.08,12.29-2.12,18.43-3.17.16,0,.32,0,.48,0,4.29-.5,4.95.38,3.27,4.38-2.29,5.45-4.56,10.91-6.92,16.34-1.45,3.35-2.77,3.53-5.1.84-1.26-1.45-2.51-2.9-3.79-4.33a1.26,1.26,0,0,0-1.72,0,9.18,9.18,0,0,0-2.8,4.38,23.63,23.63,0,0,0-1.09,6.12c-.22,3.84-.53,7.67-.71,11.5a25.33,25.33,0,0,1-1.23,6.59,18.19,18.19,0,0,1-8.21,10.26c-4.44,2.67-8.83,2.41-13.09-.42a19.68,19.68,0,0,1-5.82-6.29,67.55,67.55,0,0,1-5.85-12.07c-.56-1.49-1-3-1.69-4.48a18.59,18.59,0,0,0-2.1-3.75,10.47,10.47,0,0,0-13.8-2.45,14.82,14.82,0,0,0-4.74,4.68,18.9,18.9,0,0,0-3.09,8.49,31.4,31.4,0,0,0,.57,11c.55,2.17,1,4.36,1.62,6.51a78,78,0,0,1,2.44,26.16,32,32,0,0,1-4.54,15A24.08,24.08,0,0,1,106,108a33.12,33.12,0,0,1-19.15,3,16.33,16.33,0,0,1-13.06-9.38A28.67,28.67,0,0,1,71,90.53a70.68,70.68,0,0,1,1.45-17.65c.93-4.7,2-9.38,2.83-14.1A33.13,33.13,0,0,0,75,45.44c-1-4.37-3.61-7-8.09-7.72C59.5,36.62,53,38.56,47.69,44a33.77,33.77,0,0,0-6.14,9.12,60.43,60.43,0,0,0-3.77,10.35c-1,3.71-1.91,7.43-2.94,11.13-.55,2-1.19,4-1.9,5.93a26.07,26.07,0,0,1-4.85,8.22,17.36,17.36,0,0,1-15.85,6.14A26.24,26.24,0,0,1,1.87,91.4,7.08,7.08,0,0,1,.39,90.2a1.55,1.55,0,0,1-.21-1.78,1.51,1.51,0,0,1,1.62-.71c1,.45,2,1,3,1.44A22.06,22.06,0,0,0,15,91.6a13.39,13.39,0,0,0,9.12-3.67,21.62,21.62,0,0,0,4.54-6.15,40.86,40.86,0,0,0,2.94-8.1c1-3.86,2-7.74,3-11.6a58.75,58.75,0,0,1,5.1-12.9,30.61,30.61,0,0,1,7.07-9c6.53-5.54,14-7.45,22.38-5.45a11.81,11.81,0,0,1,8.55,7.71A20.88,20.88,0,0,1,79,48.5a56.82,56.82,0,0,1-1.48,17.14,131.83,131.83,0,0,0-2.91,16A37.45,37.45,0,0,0,75.15,95a26.92,26.92,0,0,0,1.71,5,13,13,0,0,0,10.83,7.71,30.06,30.06,0,0,0,16.39-2.52,21.63,21.63,0,0,0,10.26-9.71c2.34-4.33,3.15-9,3.48-13.84C117.92,80.2,117.83,78.75,117.83,77.31Z"/></g></g></svg>